<svg xmlns="http://www.w3.org/2000/svg" width="24" height="24" viewBox="0 0 24 24"><metadata><rdf:RDF xmlns:rdf="http://www.w3.org/1999/02/22-rdf-syntax-ns#" xmlns:dc="http://purl.org/dc/elements/1.1/"><rdf:Description><dc:creator>RealFaviconGenerator</dc:creator><dc:source>https://realfavicongenerator.net</dc:source></rdf:Description></rdf:RDF></metadata><path fill="#F6339A" d="M10 15h12v2H10zm0-8h12v2H10zm-4 6H4c-1.1 0-2 .9-2 2v2c0 1.1.9 2 2 2h2c1.1 0 2-.9 2-2v-2c0-1.1-.9-2-2-2m-2 4v-2h2v2zM6 5H4c-1.1 0-2 .9-2 2v2c0 1.1.9 2 2 2h2c1.1 0 2-.9 2-2V7c0-1.1-.9-2-2-2M4 9V7h2v2z"></path></svg>